<svg width="18" height="18" viewBox="0 0 18 18" fill="none" xmlns="http://www.w3.org/2000/svg">
<path d="M10.1562 16.0156L9.29688 16.875C8.90625 17.2266 8.32031 17.2266 7.96875 16.875L0.390625 9.25781C0 8.90625 0 8.32031 0.390625 7.96875L7.96875 0.351562C8.32031 0 8.94531 0 9.29688 0.351562L10.1562 1.21094C10.5469 1.60156 10.5078 2.1875 10.1562 2.57812L5.42969 7.03125H16.6797C17.1875 7.03125 17.6172 7.46094 17.6172 7.96875V9.21875C17.6172 9.76562 17.1875 10.1562 16.6797 10.1562H5.42969L10.1562 14.6484C10.5078 15.0391 10.5469 15.625 10.1562 16.0156Z" fill="black"/>
</svg>
